<svg width="90" height="94" viewBox="0 0 90 94" fill="none" xmlns="http://www.w3.org/2000/svg">
<path d="M21 40V44C21 46.7614 23.2386 49 26 49H38" stroke="white" stroke-width="4"/>
<path fill-rule="evenodd" clip-rule="evenodd" d="M54.2123 54.6687L56.0658 52.5909L57.443 55.0108L61.7382 62.5576L58.2618 64.5362L55.3438 59.4091L47.7191 67.9563L47.743 67.9814L47.6858 68.0431L54.3228 75.689L51.3022 78.3111L44.952 70.9957L38.1342 78.3588L35.1991 75.6412L42.257 68.0187L33.9346 59.2724L30.7096 64.5848L27.2904 62.509L31.8719 54.9621L33.2285 52.7276L35.0304 54.6214L44.9525 65.0488L54.2123 54.6687Z" fill="white" fill-opacity="0.5"/>
<path d="M11.6565 72.7907C6.01374 78 3.42748 87.5504 3 92H45L29.6107 64C25.8702 64.5426 17.2992 67.5814 11.6565 72.7907Z" stroke="white" stroke-width="4"/>
<path d="M78.3435 72.7907C83.9863 78 86.5725 87.5504 87 92H45L60.3893 64C64.1298 64.5426 72.7008 67.5814 78.3435 72.7907Z" stroke="white" stroke-width="4"/>
<path d="M27.8922 25.8906C27.4559 16.142 35.2417 8 45 8C54.7583 8 62.5441 16.142 62.1078 25.8906L61.3246 43.3897C60.9338 52.1217 53.7407 59 45 59C36.2593 59 29.0662 52.1217 28.6754 43.3897L27.8922 25.8906Z" stroke="white" stroke-width="4"/>
<path d="M27.5 25C27.5 25 31.7884 19.5199 36.8448 18.3243C44.4712 16.5209 44.181 22.6617 55.3448 26.3317C58.078 27.2302 62 27 62 27" stroke="white" stroke-opacity="0.5" stroke-width="4"/>
<path fill-rule="evenodd" clip-rule="evenodd" d="M72.9206 34.1516C73.0182 31.7329 72.2945 29.4714 70.9978 27.6363C70.8176 12.4893 59.3921 0 45 0C30.9108 0 19.6647 11.9691 19.0284 26.6835C17.2618 28.658 16.2315 31.2952 16.3468 34.1516L16.3684 34.688C16.6036 40.5167 21.5193 45.0512 27.3481 44.816L27.1868 40.8193C23.5654 40.9654 20.5113 38.1481 20.3652 34.5268L20.3435 33.9903C20.1974 30.369 23.0147 27.3148 26.6361 27.1687L26.4748 23.1719C25.3751 23.2163 24.3215 23.4273 23.3372 23.7796C25.1745 12.4349 34.2888 4 45 4C55.8103 4 64.9941 12.5918 66.7119 24.0954C65.5117 23.5534 64.1893 23.2283 62.7926 23.1719L62.6314 27.1687C66.2528 27.3148 69.07 30.369 68.9239 33.9903L68.9023 34.5268C68.7561 38.1481 65.702 40.9654 62.0806 40.8193L61.9194 44.816C67.7481 45.0512 72.6638 40.5167 72.899 34.688L72.9206 34.1516Z" fill="white"/>
<rect x="38.0026" y="45.8916" width="10.6774" height="6.24404" rx="3.12202" transform="rotate(0.400125 38.0026 45.8916)" stroke="white" stroke-width="4"/>
<path d="M67 75C69.0513 75.6875 73.9231 78.85 77 86" stroke="white" stroke-opacity="0.5" stroke-width="4"/>
</svg>
