<svg width="80" height="96" viewBox="0 0 80 96" fill="none" xmlns="http://www.w3.org/2000/svg">
<circle cx="39.5" cy="37.5" r="16.5" stroke="white" stroke-opacity="0.5" stroke-width="4"/>
<path d="M46.6651 9.33033L47.4706 10.1195L48.5627 9.83879L57.6 7.51589L60.107 16.5039L60.4099 17.5901L61.4961 17.893L70.4841 20.4L68.1612 29.4373L67.8805 30.5294L68.6697 31.3349L75.2 38L68.6697 44.6651L67.8805 45.4706L68.1612 46.5627L70.4841 55.6L61.4961 58.107L60.4099 58.4099L60.107 59.4961L57.6 68.4841L48.5627 66.1612L47.4706 65.8805L46.6651 66.6697L40 73.2L33.3349 66.6697L32.5294 65.8805L31.4373 66.1612L22.4 68.4841L19.893 59.4961L19.5901 58.4099L18.5039 58.107L9.51589 55.6L11.8388 46.5627L12.1195 45.4706L11.3303 44.6651L4.79998 38L11.3303 31.3349L12.1195 30.5294L11.8388 29.4373L9.51589 20.4L18.5039 17.893L19.5901 17.5901L19.893 16.5039L22.4 7.51589L31.4373 9.83879L32.5294 10.1195L33.3349 9.33033L40 2.79998L46.6651 9.33033Z" stroke="white" stroke-width="4"/>
<path d="M15.0042 58L4.00618 82.1799L17.1208 81.5075L25.2273 91.8386L30.4508 80.3303" stroke="white" stroke-width="4"/>
<path d="M44.5571 68.8221L55.0041 91.8386L63.1106 81.5075L76.2252 82.1799L70.7262 70.09" stroke="white" stroke-width="4"/>
</svg>
