<svg width="124" height="120" viewBox="0 0 124 120" fill="none" xmlns="http://www.w3.org/2000/svg">
<path d="M2 32.5912L32.4899 2H122V87.4088L91.5101 118H2V32.5912Z" fill="#1D1D1D" stroke="#C53720" stroke-width="4"/>
<path d="M41 51V55C41 57.7614 43.2386 60 46 60H58" stroke="white" stroke-width="4"/>
<path fill-rule="evenodd" clip-rule="evenodd" d="M74.2125 65.6687L76.0659 63.5909L77.4431 66.0108L81.7383 73.5576L78.262 75.5362L75.3439 70.4091L67.7193 78.9563L67.7431 78.9814L67.686 79.0431L74.323 86.689L71.3023 89.3111L64.9521 81.9957L58.1343 89.3588L55.1993 86.6412L62.2572 79.0187L53.9348 70.2724L50.7098 75.5848L47.2905 73.509L51.8721 65.9621L53.2286 63.7276L55.0306 65.6214L64.9527 76.0488L74.2125 65.6687Z" fill="white" fill-opacity="0.5"/>
<path d="M31.6565 83.7907C26.0137 89 23.4275 98.5504 23 103H65L49.6107 75C45.8702 75.5426 37.2992 78.5814 31.6565 83.7907Z" stroke="white" stroke-width="4"/>
<path d="M80.3893 75C84.1298 75.5426 92.7008 78.5814 98.3435 83.7907C99.5275 84.8837 100.577 86.1678 101.5 87.5559L86.5 103H65L80.3893 75Z" stroke="white" stroke-width="4"/>
<path d="M82.1078 36.8906L81.3246 54.3897C80.9338 63.1217 73.7407 70 65 70C56.2593 70 49.0662 63.1217 48.6754 54.3897L47.8922 36.8906C47.4559 27.142 55.2417 19 65 19C74.7583 19 82.5441 27.142 82.1078 36.8906Z" stroke="white" stroke-width="4"/>
<path d="M47.5 36C47.5 36 51.7884 30.5199 56.8448 29.3243C64.4712 27.5209 64.181 33.6617 75.3448 37.3317C78.078 38.2302 82 38 82 38" stroke="white" stroke-opacity="0.5" stroke-width="4"/>
<path fill-rule="evenodd" clip-rule="evenodd" d="M92.9205 45.1516C93.0181 42.7329 92.2944 40.4714 90.9977 38.6363C90.8174 23.4893 79.3919 11 64.9998 11C50.9107 11 39.6645 22.9691 39.0283 37.6835C37.2616 39.658 36.2314 42.2952 36.3466 45.1516L36.3683 45.688C36.6034 51.5167 41.5192 56.0512 47.3479 55.816L47.1866 51.8193C43.5653 51.9654 40.5111 49.1481 40.365 45.5268L40.3434 44.9903C40.1973 41.369 43.0145 38.3148 46.6359 38.1687L46.4746 34.1719C45.3749 34.2163 44.3213 34.4273 43.3371 34.7796C45.1743 23.4349 54.2887 15 64.9998 15C75.8102 15 84.994 23.5918 86.7118 35.0954C85.5115 34.5534 84.1892 34.2283 82.7925 34.1719L82.6312 38.1687C86.2526 38.3148 89.0699 41.369 88.9237 44.9903L88.9021 45.5268C88.756 49.1481 85.7019 51.9654 82.0805 51.8193L81.9192 55.816C87.7479 56.0512 92.6637 51.5167 92.8988 45.688L92.9205 45.1516Z" fill="white"/>
<rect x="58.0026" y="56.8917" width="10.6774" height="6.24404" rx="3.12202" transform="rotate(0.400125 58.0026 56.8917)" stroke="white" stroke-width="4"/>
</svg>
