<svg width="132" height="58" viewBox="0 0 132 58" fill="none" xmlns="http://www.w3.org/2000/svg">
<path fill-rule="evenodd" clip-rule="evenodd" d="M54.5957 0.000244141H60.2097H72.0734H75.3503V5.68433L71.3929 13.8096H65.3473H60.2097V21.0142H54.5957V13.8096V8.12552V5.68433V0.000244141ZM69.3047 5.68433H60.2097V8.12552H68.1159L69.3047 5.68433Z" fill="white"/>
<path fill-rule="evenodd" clip-rule="evenodd" d="M75.3501 0.000244141H80.9642H92.8278H96.1048V5.68433L92.1472 13.8096H92.1244L95.6334 21.0142H89.5879L86.0789 13.8096H80.9642V21.0142H75.3501V13.8096V8.12552V5.68433V0.000244141ZM90.0592 5.68433H80.9642V8.12552H86.0789H88.8703L90.0592 5.68433Z" fill="white"/>
<path fill-rule="evenodd" clip-rule="evenodd" d="M101.247 5.68433V15.33H110.774V5.68433H101.247ZM110.774 0.000244141H116.388V5.68433V15.33L110.774 21.0142H101.247H95.6334V15.33V5.68433L101.247 0.000244141H110.774V0.000244141Z" fill="white"/>
<path fill-rule="evenodd" clip-rule="evenodd" d="M60.2097 33.9027V36.3438H63.6458H69.7363V33.9027H60.2097ZM60.2097 42.0279V49.2325H54.5957V42.0279V36.3438V33.9027L60.2097 28.2185H69.7363H75.3502V33.9027V36.3438V37.3817V42.0279V43.5484V49.2325H69.7363V42.0279H63.6458H60.2097Z" fill="#FF2500"/>
<path fill-rule="evenodd" clip-rule="evenodd" d="M84.8768 28.2185H90.4908V43.5484L84.8768 49.2325H75.3501H69.7362V43.5484V37.3817V28.2185H75.3501V37.3817V43.5484H84.8768V28.2185Z" fill="#FF2500"/>
<path fill-rule="evenodd" clip-rule="evenodd" d="M98.0611 28.2185H103.675H105.631H111.245V33.9027H103.675V37.3817V43.5484V49.2325H98.0611V37.3817V33.9027H90.4908V28.2185H98.0611Z" fill="#FF2500"/>
<path fill-rule="evenodd" clip-rule="evenodd" d="M116.859 33.9027V43.5484H126.386V33.9027H116.859ZM126.386 28.2185H132V33.9027V43.5484L126.386 49.2325H116.859H111.245V43.5484V33.9027L116.859 28.2185H126.386Z" fill="#FF2500"/>
<path d="M48.9815 0H43.3676V49.2324H48.9815V0Z" fill="#FF2500"/>
<path fill-rule="evenodd" clip-rule="evenodd" d="M43.3677 0H27.8909L13.481 12.1206L9.63576 8.85392H0.927795L4.90598 12.8817H8.88428L31.0961 19.5428L25.2387 15.3429H43.3677V0Z" fill="white"/>
<path fill-rule="evenodd" clip-rule="evenodd" d="M9.06141 17.3131L21.1727 25.8164L11.6251 24.7423L7.38263 17.2537L9.06141 17.3131Z" fill="white"/>
<path fill-rule="evenodd" clip-rule="evenodd" d="M43.3677 32.3507H9.72444L27.4051 45.0607H4.59699L0 25.011V49.2324H12.7301V48.1714H43.3677V32.3507Z" fill="white"/>
<path fill-rule="evenodd" clip-rule="evenodd" d="M43.3677 26.1283L22.098 25.9045L35.64 27.4439H43.3677V26.1283Z" fill="white"/>
<path d="M6.27467 53.9021V54.9266H2.1061C1.82349 54.9266 1.60989 55.0298 1.46554 55.2361C1.33821 55.4142 1.27382 55.6525 1.27382 55.9523C1.27382 56.2532 1.33821 56.4903 1.46554 56.666C1.60989 56.8724 1.82349 56.9755 2.1061 56.9755H6.27467V58H1.94596C1.31513 58 0.833496 57.8194 0.499855 57.4583C0.166213 57.0971 0 56.596 0 55.9523C0 55.3075 0.166213 54.8051 0.499855 54.4439C0.833496 54.0827 1.31513 53.9021 1.94596 53.9021H6.27467ZM9.19482 57.0345H13.4254V58H9.0359C8.40507 58 7.92344 57.8194 7.59101 57.4583C7.25737 57.0971 7.09116 56.596 7.09116 55.9523C7.09116 55.3075 7.25737 54.8051 7.59101 54.4439C7.92344 54.0827 8.40507 53.9021 9.0359 53.9021H13.4254V54.8677H9.19482C8.97284 54.8677 8.78719 54.9315 8.64041 55.0581C8.57492 55.1158 8.48635 55.2509 8.37834 55.461L8.37105 55.4867H13.4254V56.408H8.37105L8.37834 56.4301C8.47542 56.6414 8.56277 56.7778 8.64041 56.8404C8.78719 56.9693 8.97284 57.0345 9.19482 57.0345ZM20.6694 53.9021V54.9266H18.0646V58H16.849V54.9266H14.2443V53.9021H20.6694ZM26.5923 57.0345C26.8482 57.0345 26.9756 56.9313 26.9756 56.7249C26.9756 56.5137 26.8482 56.408 26.5923 56.408H22.7027V57.0345H26.5923ZM22.7027 53.9021V55.4867H26.9113C27.3044 55.4867 27.6162 55.5961 27.8467 55.8147C28.0759 56.0334 28.1912 56.3417 28.1912 56.7396C28.1912 57.1376 28.0772 57.4485 27.8503 57.6683C27.6223 57.8894 27.3093 58 26.9113 58H21.4871V53.9021H22.7027ZM34.1555 54.8677V53.9021H39.0107C39.4911 53.9021 39.8721 54.0299 40.1511 54.2867C40.327 54.4426 40.4472 54.6269 40.5102 54.8381C40.5526 54.9954 40.5745 55.2178 40.5745 55.5027V58H35.1502C34.7547 58 34.4417 57.8894 34.2137 57.6683C33.9844 57.4485 33.8703 57.1376 33.8703 56.7396C33.8703 56.3417 33.9856 56.0334 34.2173 55.8147C34.4478 55.5961 34.7596 55.4867 35.1502 55.4867H39.3589V55.4475C39.3589 55.1429 39.2472 54.9586 39.0252 54.8958C38.9561 54.8775 38.8517 54.8677 38.7122 54.8677H34.1555ZM39.3589 57.0345V56.408H35.4729C35.2146 56.408 35.0859 56.5137 35.0859 56.7249C35.0859 56.9313 35.2146 57.0345 35.4729 57.0345H39.3589ZM41.391 53.9021H46.8153C47.2132 53.9021 47.5262 54.0127 47.7542 54.235C47.9811 54.4574 48.0951 54.7669 48.0951 55.1649C48.0951 55.4892 48.0199 55.7533 47.8707 55.9597C48.0199 56.1611 48.0951 56.4215 48.0951 56.7409C48.0951 57.1388 47.9811 57.4485 47.7542 57.6696C47.5262 57.8894 47.2132 58 46.8153 58H41.391V53.9021ZM46.4962 57.0345C46.7521 57.0345 46.8795 56.9313 46.8795 56.7249C46.8795 56.5284 46.7679 56.4228 46.5459 56.408H42.6066V57.0345H46.4962ZM42.6066 54.8677V55.4867H46.4962C46.7521 55.4916 46.8795 55.3885 46.8795 55.1772C46.8795 54.9709 46.7521 54.8677 46.4962 54.8677H42.6066ZM55.3379 53.9021V54.9266H52.7332V58H51.5176V54.9266H48.9128V53.9021H55.3379ZM57.6625 53.9021H61.5641C61.9815 53.9021 62.3369 54.0508 62.6305 54.348C62.9241 54.6454 63.0709 55.0052 63.0709 55.4278V56.4743C63.0709 56.8919 62.9241 57.2507 62.6305 57.5503C62.3369 57.8501 61.9815 58 61.5641 58H57.6625C57.25 58 56.8957 57.8501 56.5997 57.5503C56.3036 57.2507 56.1556 56.8919 56.1556 56.4743V55.4278C56.1556 55.0052 56.3036 54.6454 56.5997 54.348C56.8957 54.0508 57.25 53.9021 57.6625 53.9021ZM57.4077 55.4867V56.3564C57.4077 56.5284 57.4683 56.677 57.5884 56.7987C57.7098 56.9215 57.8553 56.9829 58.0264 56.9829H61.1419C61.313 56.9829 61.4585 56.9215 61.5799 56.7987C61.7 56.677 61.7606 56.5284 61.7606 56.3564V55.4867C61.7606 55.3147 61.7 55.1661 61.5799 55.0446C61.4585 54.9217 61.313 54.8603 61.1419 54.8603H58.0264C57.8553 54.8603 57.7098 54.9217 57.5884 55.0446C57.4683 55.1661 57.4077 55.3147 57.4077 55.4867ZM71.0817 53.9021H72.3191V58H71.1035V55.1538C71.089 55.1637 71.0464 55.1956 70.9736 55.2496C70.9021 55.3038 70.8135 55.3701 70.7105 55.4475C70.6073 55.5261 70.4957 55.6108 70.3732 55.703C70.2518 55.7951 70.1342 55.8848 70.0213 55.9696C69.9084 56.0542 69.8078 56.1317 69.718 56.1992C69.6283 56.268 69.5628 56.3183 69.5227 56.3491C69.4608 56.3994 69.3953 56.4474 69.325 56.4952C69.2545 56.542 69.1842 56.5849 69.1138 56.6243C69.0423 56.6635 68.9719 56.6992 68.9028 56.7298C68.8324 56.7618 68.7656 56.7864 68.7013 56.806C68.6371 56.8281 68.5704 56.8441 68.5012 56.8564C68.4307 56.8687 68.3665 56.8773 68.3071 56.881C68.2379 56.8883 68.1712 56.8932 68.1044 56.8956C68.0377 56.8932 67.971 56.8883 67.9019 56.881C67.8424 56.8773 67.778 56.8687 67.7077 56.8564C67.6386 56.8441 67.5719 56.8281 67.5076 56.806C67.3789 56.7655 67.2419 56.7041 67.0939 56.623C66.9459 56.5407 66.8087 56.4498 66.6826 56.3491C66.6425 56.3183 66.5782 56.268 66.4872 56.198C66.3974 56.128 66.2956 56.0506 66.1815 55.9634C66.0686 55.8774 65.9498 55.789 65.8272 55.698C65.7035 55.6059 65.5907 55.5224 65.4875 55.4438C65.3845 55.3664 65.2971 55.3001 65.2268 55.246C65.1552 55.1919 65.1151 55.1612 65.1054 55.1538V58H63.8898V53.9021H65.1273L67.3777 55.5825C67.4481 55.6354 67.5234 55.6833 67.601 55.7262C67.6702 55.7631 67.7478 55.7963 67.8339 55.8257C67.9213 55.8553 68.0111 55.8713 68.1068 55.8713C68.1991 55.8713 68.2876 55.8553 68.375 55.8257C68.4611 55.7963 68.5388 55.7631 68.6079 55.7262C68.6855 55.6833 68.762 55.6354 68.8349 55.5825L71.0817 53.9021ZM73.4232 54.8677V53.9021H78.2784C78.7588 53.9021 79.1398 54.0299 79.4188 54.2867C79.5947 54.4426 79.7149 54.6269 79.778 54.8381C79.8204 54.9954 79.8422 55.2178 79.8422 55.5027V58H74.418C74.0225 58 73.7095 57.8894 73.4814 57.6683C73.2522 57.4485 73.1381 57.1376 73.1381 56.7396C73.1381 56.3417 73.2534 56.0334 73.4851 55.8147C73.7156 55.5961 74.0273 55.4867 74.418 55.4867H78.6266V55.4475C78.6266 55.1429 78.515 54.9586 78.293 54.8958C78.2238 54.8775 78.1195 54.8677 77.98 54.8677H73.4232ZM78.6266 57.0345V56.408H74.7407C74.4823 56.408 74.3537 56.5137 74.3537 56.7249C74.3537 56.9313 74.4823 57.0345 74.7407 57.0345H78.6266ZM81.8743 58H80.6587V53.9021H87.0779V54.8677H81.8743V58ZM88.1807 54.8677V53.9021H93.0359C93.5163 53.9021 93.8973 54.0299 94.1763 54.2867C94.3522 54.4426 94.4724 54.6269 94.5355 54.8381C94.5779 54.9954 94.5997 55.2178 94.5997 55.5027V58H89.1754C88.78 58 88.467 57.8894 88.2389 57.6683C88.0096 57.4485 87.8956 57.1376 87.8956 56.7396C87.8956 56.3417 88.0109 56.0334 88.2426 55.8147C88.473 55.5961 88.7848 55.4867 89.1754 55.4867H93.3841V55.4475C93.3841 55.1429 93.2725 54.9586 93.0505 54.8958C92.9813 54.8775 92.877 54.8677 92.7375 54.8677H88.1807ZM93.3841 57.0345V56.408H89.4981C89.2398 56.408 89.1112 56.5137 89.1112 56.7249C89.1112 56.9313 89.2398 57.0345 89.4981 57.0345H93.3841ZM95.4174 57.0345H100.521C100.777 57.0345 100.905 56.9313 100.905 56.7249C100.905 56.5284 100.793 56.4228 100.571 56.408H96.3977V55.4867H100.521C100.777 55.4916 100.905 55.3885 100.905 55.1772C100.905 54.9709 100.777 54.8677 100.521 54.8677H95.4174V53.9021H100.841C101.238 53.9021 101.551 54.0127 101.779 54.235C102.006 54.4574 102.12 54.7669 102.12 55.1649C102.12 55.4892 102.045 55.7533 101.896 55.9597C102.045 56.1611 102.12 56.4215 102.12 56.7409C102.12 57.1388 102.006 57.4485 101.779 57.6696C101.551 57.8894 101.238 58 100.841 58H95.4174V57.0345ZM104.381 58C103.884 58 103.52 57.8698 103.288 57.6094C103.053 57.349 102.937 57.0627 102.937 56.7483V53.9021H104.152V56.5407C104.152 56.8306 104.293 56.9755 104.576 56.9755H108.258V53.9021H109.474V58H104.381ZM116.741 53.9021V58H115.525V56.408H111.507V58H110.291V53.9021H111.507V55.4867H115.525V53.9021H116.741ZM119.066 53.9021H122.968C123.385 53.9021 123.741 54.0508 124.035 54.348C124.328 54.6454 124.475 55.0052 124.475 55.4278V56.4743C124.475 56.8919 124.328 57.2507 124.035 57.5503C123.741 57.8501 123.385 58 122.968 58H119.066C118.654 58 118.3 57.8501 118.004 57.5503C117.708 57.2507 117.56 56.8919 117.56 56.4743V55.4278C117.56 55.0052 117.708 54.6454 118.004 54.348C118.3 54.0508 118.654 53.9021 119.066 53.9021ZM118.812 55.4867V56.3564C118.812 56.5284 118.872 56.677 118.992 56.7987C119.114 56.9215 119.259 56.9829 119.43 56.9829H122.546C122.717 56.9829 122.863 56.9215 122.984 56.7987C123.104 56.677 123.165 56.5284 123.165 56.3564V55.4867C123.165 55.3147 123.104 55.1661 122.984 55.0446C122.863 54.9217 122.717 54.8603 122.546 54.8603H119.43C119.259 54.8603 119.114 54.9217 118.992 55.0446C118.872 55.1661 118.812 55.3147 118.812 55.4867ZM125.294 53.9021H130.718C131.116 53.9021 131.429 54.0127 131.657 54.235C131.884 54.4574 131.998 54.7669 131.998 55.1649C131.998 55.4892 131.923 55.7533 131.774 55.9597C131.923 56.1611 131.998 56.4215 131.998 56.7409C131.998 57.1388 131.884 57.4485 131.657 57.6696C131.429 57.8894 131.116 58 130.718 58H125.294V53.9021ZM130.399 57.0345C130.655 57.0345 130.782 56.9313 130.782 56.7249C130.782 56.5284 130.671 56.4228 130.449 56.408H126.509V57.0345H130.399ZM126.509 54.8677V55.4867H130.399C130.655 55.4916 130.782 55.3885 130.782 55.1772C130.782 54.9709 130.655 54.8677 130.399 54.8677H126.509Z" fill="white"/>
</svg>
