<svg width="40" height="40" viewBox="0 0 40 40" fill="none" xmlns="http://www.w3.org/2000/svg">
<path fill-rule="evenodd" clip-rule="evenodd" d="M24 18C24 21.3137 21.3137 24 18 24C14.6863 24 12 21.3137 12 18C12 14.6863 14.6863 12 18 12C21.3137 12 24 14.6863 24 18ZM22.8941 26.7226C21.4474 27.536 19.7779 28 18 28C12.4772 28 8 23.5228 8 18C8 12.4772 12.4772 8 18 8C23.5228 8 28 12.4772 28 18C28 20.2954 27.2266 22.4101 25.9263 24.0979L33.4142 31.5858L30.5858 34.4142L22.8941 26.7226Z" fill="white"/>
</svg>
